<svg width="114" height="64" viewBox="0 0 114 64" fill="none" xmlns="http://www.w3.org/2000/svg">
<path d="M23.0798 16.7529H18.4907V42.6949H33.9103V16.7529H29.3195V38.158H23.0798V16.7529Z" fill="white"/>
<path d="M44.6355 31.9915H50.8752V42.6932H55.4659V16.7529H40.0464V42.6949H44.6355V31.9915ZM44.6355 21.2898H50.8752V27.4563H44.6355V21.2898Z" fill="white"/>
<path d="M63.9498 21.2898V42.6949H68.5389V21.2898H73.955V16.7529H58.5354V21.2898H63.9498Z" fill="white"/>
<path d="M87.8527 38.158H77.0222V42.6949H92.4435V27.4563H81.613V21.2898H92.4435V16.7529H77.0222V31.9915H87.8527V38.158Z" fill="white"/>
<path d="M103.17 16.7529H98.5806V42.6949H114V16.7529H109.409V38.158H103.17V16.7529Z" fill="white"/>
<path d="M68.2979 62.4824H67.0083V63.9998H68.2979V62.4824Z" fill="#EE9200"/>
<path d="M75.7256 50.2755H81.5629V48.7598H74.4343V64.0001H81.5629V62.4827H75.7256V50.2755Z" fill="#EE9200"/>
<path d="M87.6997 64.0001H94.8266V48.7598H87.6997V64.0001ZM88.9893 50.2755H93.5371V62.4827H88.9893V50.2755Z" fill="#EE9200"/>
<path d="M102.252 50.2755H106.8V64.0001H108.09V50.2755H112.638V64.0001H113.927V48.7598H100.963V64.0001H102.252V50.2755Z" fill="#EE9200"/>
<path d="M10.7789 63.9994H44.6889V48.7591H18.5231V53.347H40.0465V59.4115H15.4213V0H0V53.347H7.70978V48.7591H4.64237V4.50293H10.7789V63.9994Z" fill="white"/>
</svg>
