<svg xmlns="http://www.w3.org/2000/svg" viewBox="0 0 152.38 152.95"><defs><style>.cls-1{fill:#1e2050;}.cls-2{fill:#ed9322;}</style></defs><g id="Layer_2" data-name="Layer 2"><g id="Layer_1-2" data-name="Layer 1"><path class="cls-1" d="M93.08,117.68l-.71.63c-.25.21-.49.42-.75.62-.51.41-1.05.81-1.59,1.19L78.75,143.29,76.5,130l3.34-5.36q-.61.14-1.23.24a26.05,26.05,0,0,1-3.21.38c-.6,0-1.19.07-1.8.07a28.68,28.68,0,0,1-6.72-.81L70.26,130l-2.11,13.59L55.65,119c-.57-.46-1.13-.95-1.67-1.45l-.23.2C41.62,128.24,38.41,144.43,37.57,153h70.89C106.13,128,95.76,119.49,93.08,117.68Z"/><path class="cls-1" d="M73.6,69.56a26.87,26.87,0,1,0,26.87,26.87A26.9,26.9,0,0,0,73.6,69.56Z"/><path class="cls-1" d="M150.56,135.24a.53.53,0,0,0,.23-.47.54.54,0,0,0-.29-.44c-.05,0-4.55-2.36-5.74-5.51a10.47,10.47,0,0,0,5.9,2.66.53.53,0,0,0,.5-.19.51.51,0,0,0,.09-.53c-2.34-5.7-3.5-12.45-4.63-19-.68-4-1.35-7.89-2.26-11.36A20.35,20.35,0,0,0,143,96.1a20.78,20.78,0,0,0-2.35-4.56A15.35,15.35,0,0,0,130.68,85a20.49,20.49,0,0,0-6.35-1,18.5,18.5,0,0,0-11.52,3.93c-3,1.9-5.28,4.79-7,9a30.8,30.8,0,0,0-2.35,7.56,20.79,20.79,0,0,0-.24,2.15c-.15.88-.29,1.78-.43,2.71-.62,4.39-.17,10.11.68,15.54,3.56,5.68,7.1,14.59,8.35,28.12h40.52a50,50,0,0,0-4.09-16.42A20.7,20.7,0,0,0,150.56,135.24ZM138.1,132c-.32.4-6.66,4.54-6.66,4.54l3.12,4.26-9.88,7.76,0,0,0,0,0,0,0,0-9.88-7.76,3.12-4.26s-6.35-4.14-6.67-4.54c-.56-.71,2.84-4,2.84-4l10.61,20.5,10.6-20.5S138.67,131.3,138.1,132Z"/><path class="cls-2" d="M119,0H47.27a7.09,7.09,0,0,0-7.09,7.09V45.74a7.08,7.08,0,0,0,7.09,7.09H76.12L75.17,65,85.72,52.83H119a7.08,7.08,0,0,0,7.09-7.09V7.09A7.09,7.09,0,0,0,119,0ZM86.45,34.26H50.61a1.25,1.25,0,0,1,0-2.49H86.45a1.25,1.25,0,0,1,0,2.49Zm28.37-8.59H50.61a1.25,1.25,0,0,1,0-2.49h64.21a1.25,1.25,0,0,1,0,2.49Zm0-8.59H50.61a1.25,1.25,0,0,1,0-2.49h64.21a1.25,1.25,0,0,1,0,2.49Z"/><path class="cls-2" d="M145.66,34.25H129.34v14a7.65,7.65,0,0,1-7.64,7.64H100.16v9.3a4.44,4.44,0,0,0,4.44,4.44h21.9l6.6,7.6-.6-7.6h13.16a4.44,4.44,0,0,0,4.44-4.44V38.69A4.44,4.44,0,0,0,145.66,34.25Z"/><path class="cls-1" d="M27.3,84.64a20.19,20.19,0,1,0,17.15,30.78c-2.79-4.54-6.41-12.75-2.15-24A20.11,20.11,0,0,0,27.3,84.64Z"/><path class="cls-1" d="M41.13,122.2c-.25.19-.55.42-.89.65a13.86,13.86,0,0,1-26-.12c-.63-.45-1.11-.83-1.39-1.06-.1-.09-.21-.17-.31-.27l-.17.15C-.18,132.42,0,151.44,0,152.24v.68H32c.48-7.37,2.66-20.49,11.47-30.18a12.63,12.63,0,0,0-1.53-1.23l-.53.47Z"/></g></g></svg>