<svg width="72" height="18" viewBox="0 0 72 18" fill="none" xmlns="http://www.w3.org/2000/svg">
<g clip-path="url(#clip0_670_14396)">
<path d="M4 15C2.89543 15 2 15.8954 2 17C2 18.1046 2.89543 19 4 19L4 15ZM69.4142 18.4142C70.1953 17.6332 70.1953 16.3668 69.4142 15.5858L56.6863 2.85786C55.9052 2.07681 54.6389 2.07681 53.8579 2.85786C53.0768 3.63891 53.0768 4.90524 53.8579 5.68629L65.1716 17L53.8579 28.3137C53.0768 29.0948 53.0768 30.3611 53.8579 31.1421C54.6389 31.9232 55.9052 31.9232 56.6863 31.1421L69.4142 18.4142ZM4 19L68 19L68 15L4 15L4 19Z" fill="#EE9200"/>
</g>
<defs>
<clipPath id="clip0_670_14396">
<rect width="72" height="18" fill="white"/>
</clipPath>
</defs>
</svg>
