<svg xmlns="http://www.w3.org/2000/svg" viewBox="0 0 165.31 240.56"><defs><style>.cls-1{fill:#1e2050;}.cls-2{fill:#ed9322;}.cls-3{fill:#292f6e;}</style></defs><g id="Layer_2" data-name="Layer 2"><g id="Layer_1-2" data-name="Layer 1"><path class="cls-1" d="M75.16,36.24c-1.3-6.15.63-15.64,5-21.11,3.67-4.64,9.49-7.66,14-6.2a15.4,15.4,0,0,1,10.78-4.16,34.4,34.4,0,0,1,13.66,2.74,22.71,22.71,0,0,1,8.4,5.3c2.8,2.69,5.23,8.06,5.71,12.67a53.84,53.84,0,0,1,.06,11.11,16.21,16.21,0,0,0-1.56,4.91c-.07-1.72-.11-7.34-.22-8.42a10.38,10.38,0,0,0-.7-3.5c-.33-2.48-.65-4.8-1.19-7.17-5.07.43-12.67-.6-15.47-4.91-6,2.8-12.19,1.08-19-3.56-2.48,3.48-6.18,7.24-9.71,8.41a15.28,15.28,0,0,1-.75,8.31,13,13,0,0,0-1.94,6.14c0,1.51-.18,3.77-.24,4.75s-.79.76-1,0C80.58,40,77.31,37,75.16,36.24Z"/><path class="cls-2" d="M116.63,97.36a20.83,20.83,0,0,0-7.18,10.46c1.84.92,5.4,3.18,7.39,3.62.43,9.32,4.22,29.89,5.83,38.23,5.41,11.77,17.09,41,25.39,61.63,1-8.19,1.41-13.05,1.51-17.9-2.32-12.88-5.82-29.57-10.13-45.62-4.21-15.64-10.25-26.64-16-37.53a26.07,26.07,0,0,0,1.3-5.66C122.31,100.83,119.59,98.56,116.63,97.36Z"/><path class="cls-3" d="M164.69,182.57a318.79,318.79,0,0,0-3.66-33,1.13,1.13,0,0,0-2.22.39,319.92,319.92,0,0,1,3.63,32.79c.73,12.83,0,34.19-.34,45.67-.07,2.09-.13,3.89-.16,5.28-.05,1.64-.08,3.16-.1,4.57a1.11,1.11,0,0,0,1.11,1.14h0a1.12,1.12,0,0,0,1.12-1.11c0-1.4,0-2.91.1-4.54,0-1.39.09-3.18.16-5.27C164.73,216.93,165.42,195.5,164.69,182.57Z"/><path class="cls-3" d="M159.45,142.05c-1.88-6.8-3.39-14.17-4.5-19.55l-.26-1.29c-1-4.67-2.29-7.12-4.43-8.19a1.12,1.12,0,0,0-1,2c1.44.72,2.44,2.77,3.23,6.63l.27,1.29c1.11,5.42,2.63,12.83,4.53,19.7a1.12,1.12,0,0,0,1.08.83,1.54,1.54,0,0,0,.3,0A1.14,1.14,0,0,0,159.45,142.05Z"/><path class="cls-3" d="M63.39,106.43c-1.34-.37-5.19-1.64-8.58-2.77l-3.93-1.3a1.12,1.12,0,0,0-1.42.73,1.11,1.11,0,0,0,.72,1.41l3.92,1.3c3.42,1.13,7.29,2.42,8.68,2.8s3.33,2.14,3.15,4.08a2.41,2.41,0,0,1-1.41,2.15,1.13,1.13,0,0,0,.62,2.07,1.1,1.1,0,0,0,.62-.19,4.63,4.63,0,0,0,2.42-3.82C68.45,109.9,65.92,107.13,63.39,106.43Z"/><path class="cls-3" d="M59.15,122.59a1.13,1.13,0,0,0,1.06,2c3.07-1.64,3.41-4.26,3.65-6,.28-2.11-1.47-4.06-4.36-4.85-2.13-.58-7.82-2.18-11.17-3.14a1.12,1.12,0,1,0-.62,2.16c3.35,1,9.06,2.57,11.2,3.15,1.7.47,2.84,1.47,2.71,2.43C61.41,119.87,61.2,121.5,59.15,122.59Z"/><path class="cls-3" d="M61.5,205.28a1.1,1.1,0,0,0-1.2,1.05c-.34,4.78-3.58,10.58-8.44,15.12-3.38,3.16-7.42,4.36-13.1,3.91-4.24-.34-7.9-.63-14-7.11-5.62-6-5.82-10.15-6.16-17.75l0-.84a110.06,110.06,0,0,1,1.89-25.92A153.29,153.29,0,0,0,23,148.89c.19-6.71,1.14-21.86,2.27-26.94,1.08-4.86,2.83-6.83,6.3-9.88a1.13,1.13,0,0,0-1.48-1.7c-3.42,3-5.76,5.4-7,11.09-1.16,5.21-2.13,20.58-2.32,27.36a146.94,146.94,0,0,1-2.47,24.47,112.06,112.06,0,0,0-1.93,26.48l0,.84c.36,7.86.57,12.61,6.77,19.19s10.15,7.38,15.45,7.8c.75.06,1.57.11,2.44.11a17.43,17.43,0,0,0,12.37-4.61c5.35-5,8.77-11.2,9.15-16.61A1.12,1.12,0,0,0,61.5,205.28Z"/><path class="cls-3" d="M61.87,126a1.12,1.12,0,0,0-.47,1.52c3.54,6.7,4.52,11.12,5.49,20.19a1.13,1.13,0,0,0,1.12,1h.12a1.13,1.13,0,0,0,1-1.24c-1-9-2-13.87-5.73-21A1.14,1.14,0,0,0,61.87,126Z"/><path class="cls-3" d="M69,163.26a1.15,1.15,0,0,0-1.16,1.1c-.19,6.77-2.3,17.68-3.51,23.06-.72,3.19-1.29,6-1.78,8.44-.43,2.13-.84,4.15-1.28,6.09a1.12,1.12,0,0,0,.85,1.35,1.07,1.07,0,0,0,.25,0,1.14,1.14,0,0,0,1.1-.88c.44-2,.85-4,1.29-6.14.49-2.45,1-5.23,1.77-8.39,1.23-5.46,3.37-16.55,3.56-23.5A1.13,1.13,0,0,0,69,163.26Z"/><path class="cls-3" d="M128.74,182.17c-6.24-11-18.51-29.67-26.06-40.22-1.31-1.83-2.65-3.64-4-5.37A1.13,1.13,0,0,0,96.91,138c1.32,1.71,2.65,3.49,3.94,5.3,7.51,10.5,19.73,29.09,25.93,40,4.54,8,10.18,18.46,12.87,23.54a1.13,1.13,0,0,0,2-1.06C139,200.68,133.29,190.2,128.74,182.17Z"/><path class="cls-3" d="M79.44,115.37c2.11-.88,4.2-1.83,6.39-2.83l1.84-.83a1.13,1.13,0,0,0-.19-2.12c-2-.51-4.59-.87-7.11-1.23-1.82-.25-3.57-.5-4.93-.78-1-4.58-4.13-13.38-5-15.7.87-1.21,2-2.84,2.83-4.18L74,86.61c.55-.82,1-1.59,1.44-2.28s.76-1.27,1.11-1.75a1.13,1.13,0,0,0-1.85-1.3c-.38.55-.75,1.17-1.19,1.88s-.85,1.41-1.38,2.2l-.73,1.1c-.93,1.41-2.07,3.14-2.94,4.32-1.12.5-2.92,1.4-4.52,2.21-1.38.7-2.69,1.35-3.14,1.54a.67.67,0,0,0-.24.16c0-2.74.1-5.56.27-7.12,0-.42.18-1.08.34-1.85a27.79,27.79,0,0,0,.79-8c-.43-4.32-2.95-6.16-5.15-6.43-2.51-.32-4.73,1.33-6.12,4.53a19.91,19.91,0,0,0-1.16,8.35c0,.4,0,.78,0,1.13a57.58,57.58,0,0,1-1,8.54,27.84,27.84,0,0,0-5.75.75,9.11,9.11,0,0,0-4.74,4.25,8.66,8.66,0,0,0-3,6.38A10.24,10.24,0,0,1,34,109.48,10.67,10.67,0,0,0,33,117a4.5,4.5,0,0,1-.27,3.32c-1,1.93-.4,5.2.69,7.23,1.31,2.45.7,7.44,0,10-.26,1-.7,3.24-1.17,5.63-.21,1.07-.42,2.15-.61,3.08a4,4,0,0,1-.11-1.05c.06-.32.11-.62.16-.89,0-.05,0-.1,0-.15a1.62,1.62,0,0,0,0-.22.66.66,0,0,0-.06-.2.7.7,0,0,0-.08-.2l-.13-.17-.15-.15-.2-.11a.75.75,0,0,0-.12-.07h-.08s0,0-.08,0h-.37l-.19.05a1.33,1.33,0,0,0-.21.09l-.16.12a1.21,1.21,0,0,0-.16.16,1.74,1.74,0,0,0-.1.19.91.91,0,0,0-.08.13,4.83,4.83,0,0,0-.22,1.22c-.32,1.88-.72,4.43-1.09,7l0-.06a1.13,1.13,0,0,0-1.59.15,11.7,11.7,0,0,0-2.13,7.7,1.11,1.11,0,0,0-.4.63c-.86,4.12-1.88,14.65-2.36,19.71l-.16,1.6c-.23,2.3-.76,5.57-1.22,8.46-.36,2.2-.7,4.28-.86,5.7a56.18,56.18,0,0,0-.39,10A1.12,1.12,0,0,0,20.12,207h.07a1.14,1.14,0,0,0,1.06-1.2,55.47,55.47,0,0,1,.37-9.55c.16-1.37.5-3.42.85-5.6.47-2.92,1-6.23,1.24-8.6l.16-1.61c.35-3.64,1.08-11.14,1.77-16.11a7.45,7.45,0,0,0,.63,1c3.11,4,8.18,6.62,14.27,7.3a36.36,36.36,0,0,0,4.2.25c3.24,0,6.74-.48,9.45-2.09a15.07,15.07,0,0,0,4-3.54c0,6,.09,13.7.3,17.56.23,4.42.62,11.82,0,16a1.14,1.14,0,0,0,1,1.27h.15a1.13,1.13,0,0,0,1.12-1c.59-4.38.19-11.91,0-16.41-.25-4.82-.29-15.7-.29-21.75a1,1,0,0,0-.09-.44,6.92,6.92,0,0,0-.2-2.78,1.12,1.12,0,1,0-2.16.62c1,3.45-2.54,7.05-5,8.51-2.66,1.59-7,2.14-12.24,1.55-3.17-.36-9-1.68-12.74-6.45a6.31,6.31,0,0,1-.77-1.33,1.1,1.1,0,0,0,.79.39h.06a1.14,1.14,0,0,0,1.13-1.07c.13-2.26.84-7.69,1.53-12.23,0,.05.07.11.12.17a64.28,64.28,0,0,0,7.5,7.3,3.83,3.83,0,0,1,1.74,2.8,1.11,1.11,0,0,0,1,1l.17,0a1.12,1.12,0,0,0,1-.67c.66-1.44,1-1.72,3-2.33.57-.18,1.26-.31,2-.46A14.86,14.86,0,0,0,53.68,155a9.73,9.73,0,0,0,1.53-1.41c-.05,1.08-.11,2.16-.17,3.19-.16,2.84-.29,5.29-.29,6.63a1.13,1.13,0,0,0,2.25,0c0-1.28.14-3.82.29-6.51.16-2.86.33-6.1.38-8.51h0a4.53,4.53,0,0,0-.85-3.25,1.14,1.14,0,0,0-1.58-.19,1.06,1.06,0,0,0-.33.46c0-.66,0-1.26,0-1.72a26.59,26.59,0,0,1,.64-6.78c1-3,2.19-7,2.19-9.08,0,0,0,0,0,0A8.16,8.16,0,0,0,58,126.7a6,6,0,0,0-1.29-4.89,7.63,7.63,0,0,0-3.65-1.9,24.13,24.13,0,0,0-3.46-.52,35.1,35.1,0,0,1-4.81-.74,1.13,1.13,0,0,0-1.37.81,1.11,1.11,0,0,0,.81,1.37,36.69,36.69,0,0,0,5.12.8,24.91,24.91,0,0,1,3.1.45,5.66,5.66,0,0,1,2.6,1.26,3.79,3.79,0,0,1,.72,3,3,3,0,0,1-1.54,2.5A16.7,16.7,0,0,1,48.26,130c-1.89-.08-3-.34-3.2-.78-.06-.18-.12-.35-.19-.52a10.14,10.14,0,0,1,4.73-.26,1.13,1.13,0,0,0,1.51-.49,1.14,1.14,0,0,0-.49-1.52c-1.4-.72-6.5-.59-8,1.07a1.11,1.11,0,0,0-.22,1.13l.25.68a6.83,6.83,0,0,1,.7,2.82,1.11,1.11,0,0,0,.92,1.29.62.62,0,0,0,.19,0,1.13,1.13,0,0,0,1.11-.94,3.27,3.27,0,0,0,0-.54,13.49,13.49,0,0,0,2.52.29h.26A19.62,19.62,0,0,0,55,131c-.35,1.44-.88,3.21-1.54,5.22a26.38,26.38,0,0,0-.76,7.49c0,1.32,0,3.71,0,5.58,0,1.19,0,2.17,0,2.51a1.13,1.13,0,0,0,.34.81,8.42,8.42,0,0,1-.72.62,13.12,13.12,0,0,1-5.47,2c-.79.15-1.53.3-2.21.5a7.35,7.35,0,0,0-3.06,1.52,6.57,6.57,0,0,0-1.84-2,65.2,65.2,0,0,1-6.46-6.18c.26-1.05.68-3.18,1.12-5.45s.89-4.57,1.14-5.48c.7-2.59,1.56-8.37-.2-11.65-.78-1.47-1.23-4-.65-5.18a6.76,6.76,0,0,0,.43-4.87,8.39,8.39,0,0,1,.78-5.88,12.93,12.93,0,0,0,1.42-5.33,6.35,6.35,0,0,1,2.3-4.8,1.1,1.1,0,0,0,.34-.4,6.94,6.94,0,0,1,3.57-3.37,37.53,37.53,0,0,1,9.19-.65,29.88,29.88,0,0,1,7.12,1.89,45.71,45.71,0,0,1,7.48,3.46c.31.21,1.27.86.52,3.39a3.46,3.46,0,0,1-.74,1.45,1.12,1.12,0,0,0,0,1.59,1.14,1.14,0,0,0,1.6,0A5.65,5.65,0,0,0,70,105.42c1-3.4-.23-5.07-1.43-5.88a41,41,0,0,0-6.47-3.13c.65-.31,1.68-.82,2.84-1.41s2.56-1.29,3.6-1.77c1.27,3.5,4.17,11.85,4.81,15.49a1.14,1.14,0,0,0,.85.9c1.54.37,3.63.66,5.84,1,1.17.17,2.36.33,3.48.52-2.24,1-4.39,2-6.57,2.84a1.12,1.12,0,0,0-.34,1.87,176.88,176.88,0,0,1,17,18,1.15,1.15,0,0,0,.88.41,1.12,1.12,0,0,0,.71-.25,1.14,1.14,0,0,0,.16-1.59A177.77,177.77,0,0,0,79.44,115.37ZM27,161.84a10.15,10.15,0,0,1,.85-7.7c-.43,3.14-.78,6.07-.86,7.6C27,161.77,27,161.8,27,161.84Zm27.92-12.59c0-.93,0-2,0-3a1.49,1.49,0,0,0,.13.25,2.36,2.36,0,0,1,.39,1.79s0,0,0,0v.05a5.94,5.94,0,0,1-.47,1.53C55,149.71,54.94,149.48,54.94,149.25Zm-4-55.51a60.88,60.88,0,0,0,.91-8.46c0-.36,0-.76,0-1.18,0-2.21-.08-5,1-7.42,1-2.24,2.3-3.37,3.77-3.19s2.89,1.42,3.19,4.42A25.62,25.62,0,0,1,59,85.27c-.18.86-.32,1.54-.37,2.06-.19,1.73-.25,4.69-.29,7.69A26.31,26.31,0,0,0,53,93.81C52.41,93.76,51.69,93.74,50.89,93.74Z"/><path class="cls-3" d="M157.21,185.17a1.14,1.14,0,0,0-1.19,1.06A113.84,113.84,0,0,1,151.86,212a1.12,1.12,0,0,0,.76,1.4.89.89,0,0,0,.32.05,1.13,1.13,0,0,0,1.08-.81,116,116,0,0,0,4.25-26.23A1.13,1.13,0,0,0,157.21,185.17Z"/><path class="cls-3" d="M156.81,155.57C155,145,153,134.06,148.14,123.32a1.07,1.07,0,0,0-.41-.48c-.2-.13-3.24-2.08-6.07-3.84a18.47,18.47,0,0,0,3.73-.1,1.12,1.12,0,0,0,.71-1.74c-1.25-1.81-4.41-4.48-7.75-7.31-1.43-1.22-2.9-2.47-4.16-3.6,3.43,1.8,6.9,3.51,7.6,3.84a7.44,7.44,0,0,1,3.06,2,1.13,1.13,0,0,0,1,.56,1.07,1.07,0,0,0,.57-.16,1.11,1.11,0,0,0,.4-1.54c-.6-1-1.81-1.89-4.06-2.93-1.89-.88-12.27-6.1-14.12-7.61a1.13,1.13,0,0,0-1.52.11c-1.88-3.16-4-6.13-4.78-7.28a1.11,1.11,0,0,0-1.5-.29,7.72,7.72,0,0,0,.37-2.82c0-.51-.06-1-.09-1.42-.07-1.11-.14-2.07-.14-3.13,0-.24,0-.56,0-.93,0-1.82-.12-5.61.58-7.07a1,1,0,0,0,.06-.23,27.84,27.84,0,0,0,2.89-4.06,52.44,52.44,0,0,0,4.83-12.7c.78-3,2.6-9.92,2.84-15.32,0,0,0,0,0,0V40.53a1,1,0,0,0,.47.22l.2,0a1.12,1.12,0,0,0,1.1-.93l0-.15a50.87,50.87,0,0,0,.93-13.45,27.1,27.1,0,0,0-2.36-9.5,1.13,1.13,0,1,0-2.06.92,24.86,24.86,0,0,1,2.17,8.74,45.67,45.67,0,0,1-.48,10.44V35.29c0-2.12,0-4.13-.73-5.27a42.66,42.66,0,0,1-.62-6.31,1.13,1.13,0,1,0-2.25.05,44.19,44.19,0,0,0,.69,6.89,1.08,1.08,0,0,0,.25.53c.29.36.43,1.73.41,4.09V45.2c-.24,5.17-2,11.94-2.77,14.84a49.83,49.83,0,0,1-4.6,12.14c-2,3.48-5.6,7.38-8.54,8.1a26.84,26.84,0,0,1-10.77-.14A25,25,0,0,1,91.91,73a1.13,1.13,0,1,0-1.65,1.53,26.9,26.9,0,0,0,12.43,7.79,29.05,29.05,0,0,0,6.44.68,24,24,0,0,0,5.39-.54,11.24,11.24,0,0,0,4.23-2.31c-.11,1.45-.09,3-.06,4.56,0,.35,0,.65,0,.88,0,1.14.07,2.13.14,3.28,0,.44.06.9.09,1.4a6.64,6.64,0,0,1-2.48,5.28c-12.68-4.75-31-16.45-31.92-19.12,0-.44.08-.84.12-1.23a18.67,18.67,0,0,0-.33-6.88c-.24-1.1-.47-2-.7-3a50.22,50.22,0,0,1-1.1-5.42c-.09-.64-.15-1.2-.2-1.75a4.29,4.29,0,0,0,1-.51A1.13,1.13,0,1,0,82,55.83a2.43,2.43,0,0,1-2,.28A4.55,4.55,0,0,1,77.21,54a29.14,29.14,0,0,1-1.51-5.73c-.19-1-.39-2-.61-2.91L75,44.81c-.38-1.63-1.4-6-.38-6.86.21-.19.69-.06.88,0,1.59.54,3.61,2.78,4.12,5.45a1.13,1.13,0,0,0,.73.85l1.94.68a1.17,1.17,0,0,0,1-.15,1.14,1.14,0,0,0,.46-1c-.08-2.62-.17-7.09-.06-7.95a10.25,10.25,0,0,1,1.16-4,1.09,1.09,0,0,0,.22-.41,29,29,0,0,0,1.25-7.1,1.13,1.13,0,0,0-.73-1.07,19.41,19.41,0,0,0,8.46-7.14,1.13,1.13,0,1,0-1.88-1.24c-2.64,4-6.74,6.55-9,6.68a1.11,1.11,0,0,0-1.06,1.18,1.13,1.13,0,0,0,1.12,1.07h.07a6.45,6.45,0,0,0,1-.16,1.08,1.08,0,0,0-.23.63A26.2,26.2,0,0,1,83,30.62a13.07,13.07,0,0,0-1.5,5c-.11.86-.07,3.88,0,6a9.54,9.54,0,0,0-5.19-5.79s0-.06,0-.09c0-.24-.07-.5-.11-.77A34.64,34.64,0,0,1,76,26.4c.43-6.19,2.17-11.24,5-14.62,2.62-3.09,6.56-5.25,9-4.9a1.13,1.13,0,0,0,.32-2.23c-3.19-.46-7.82,1.93-11,5.68s-5.09,9.24-5.55,15.91a37.21,37.21,0,0,0,.22,9.08l.06.45a2.55,2.55,0,0,0-.9.49c-1.86,1.65-1.21,5.23-.32,9.06l.13.53c.21.91.4,1.88.6,2.84A29.1,29.1,0,0,0,75.2,55a6.8,6.8,0,0,0,4.27,3.29,4.1,4.1,0,0,0,.61.11c0,.58.12,1.18.21,1.84a50.25,50.25,0,0,0,1.15,5.64c.22.9.45,1.84.68,2.92A16.34,16.34,0,0,1,82.41,75c0,.47-.1,1-.14,1.47a1.13,1.13,0,0,0,0,.26c.62,4.11,20.78,15.93,32.27,20.53a28.85,28.85,0,0,0-6.32,9.28,21.89,21.89,0,0,0-1.52,5.92l0,.39a1.47,1.47,0,0,1-.84,1c-.29.11-.41,0-.47,0l0,0c-7.43-10.48-16.83-21.23-21.6-26.67-1.16-1.34-2-2.3-2.38-2.76-1.71-2.1-2.15-3.6-1.84-4.15a11.78,11.78,0,0,1,1.37-2l.46-.56a1.12,1.12,0,0,0-1.76-1.4l-.43.53a13,13,0,0,0-1.59,2.27c-.92,1.6-.21,3.91,2,6.69.4.49,1.25,1.47,2.44,2.82,6,6.8,21.76,24.87,28.5,37.68,7.19,13.67,29.72,66.64,36.24,87.33v0l-.25,2.31a143.82,143.82,0,0,0-.13,17.72c.07,2,.13,3.7.13,4.91a1.13,1.13,0,0,0,2.26,0c0-1.25-.06-3-.13-5a138.72,138.72,0,0,1,.12-17.41l.28-2.66c1-9.73,3.2-30,2.26-38.37-1.09-9.87-2.68-21.4-6.16-32.09-3.21-9.85-12.61-30.93-16.91-40.1,1.27.81,3.22,1.89,5.25,3a1.11,1.11,0,0,0-.94,1.92c1.3,1.18,2.85,2.49,4.34,3.76,2.17,1.83,4.39,3.71,5.89,5.21-1.78,0-4.11-.23-5.72-.4a1.13,1.13,0,0,0-.66,2.11c2.16,1.16,8.42,5.16,9.82,6.06,4.68,10.39,6.55,21.07,8.36,31.4l.15.87a133.39,133.39,0,0,1,1.5,23.67,1.12,1.12,0,0,0,1.1,1.14h0a1.12,1.12,0,0,0,1.12-1.1,135.46,135.46,0,0,0-1.53-24.1ZM120.32,94.2a1,1,0,0,0,.16.37c.82,1.15,2.93,4.15,4.75,7.23l.49,1c-.41-.43-.78-.83-1-1.13a23.67,23.67,0,0,0-6.06-5.15A10.13,10.13,0,0,0,120.32,94.2Zm-13.55,21.64a3.66,3.66,0,0,0,2.12-2.72l0-.42a18,18,0,0,1,.64-3.17,38.1,38.1,0,0,0,5.89,2.75c.39,5.87,2.21,18.07,4,27.57-2.86-6.36-5.31-11.53-7-14.65A97.11,97.11,0,0,0,106.77,115.84Zm17,33.72a1.16,1.16,0,0,0,0-.49c-2.18-8.19-5.7-30-6.08-37.62a1.14,1.14,0,0,0-.71-1l-.43-.17a35.62,35.62,0,0,1-6.07-2.87.37.37,0,0,0-.14-.07v0a26.31,26.31,0,0,1,6.51-9.16,20.83,20.83,0,0,1,6.11,5c.21.26.49.56.78.87,0,1.92-.34,4.28-1,5.18a1.11,1.11,0,0,0-.09,1.14c1,2.16,2.18,4.41,3.33,6.69,3.48,6.93,7.09,14.09,9.36,20.72a260.15,260.15,0,0,1,8.25,31.07c1.56,8.28,3,16.1,3.93,24.76a1.12,1.12,0,0,0,1,1c-.37,4.82-.84,9.64-1.25,13.6C142.22,193.33,132.13,168.71,123.77,149.56Zm25.31,25.8a82.77,82.77,0,0,1,0,12.09c-.89-6.49-2-12.63-3.25-19A261.54,261.54,0,0,0,137.5,137c-2.32-6.78-6-14-9.48-21-1.05-2.09-2.09-4.14-3.06-6.13a11.77,11.77,0,0,0,.91-3.68c1,1,2,2,2.36,2.49a1.1,1.1,0,0,0,.35.3c4.69,10.3,11.76,26.49,14.43,34.72C146.43,154.22,148,165.61,149.08,175.36Z"/><path class="cls-3" d="M48.63,227.15a1.11,1.11,0,0,0-1,1.22c.33,3.42.62,7.37.81,11.13a1.11,1.11,0,0,0,1.12,1.06h.06a1.13,1.13,0,0,0,1.07-1.18c-.2-3.79-.49-7.77-.82-11.22A1.12,1.12,0,0,0,48.63,227.15Z"/><path class="cls-3" d="M129.28,21.54a1.12,1.12,0,0,0-1.43-.7c-3.28,1.11-9.7-.26-12.74-2.72a1.51,1.51,0,0,0-.18-.09c.64-.27,1.28-.55,1.91-.84a1.13,1.13,0,0,0-1-2.05c-3,1.42-5.93,2.56-10.2,2.18-3.67-.32-6-1.67-8.93-4.05A1.12,1.12,0,0,0,95.35,15c3.22,2.6,5.92,4.18,10.14,4.55.63.05,1.23.08,1.81.08a18.36,18.36,0,0,0,6-1,1.11,1.11,0,0,0,.34,1.25c2.72,2.21,7.45,3.61,11.33,3.61a11.13,11.13,0,0,0,3.56-.51A1.13,1.13,0,0,0,129.28,21.54Z"/><path class="cls-3" d="M95.13,4.53c2.2-1.73,7.79-2.57,11.31-2.18a56.2,56.2,0,0,1,11.67,2.84c3,1.18,7.14,3.43,9.59,7.4a1.11,1.11,0,0,0,1,.54,1.15,1.15,0,0,0,.59-.17,1.14,1.14,0,0,0,.37-1.55c-2.78-4.5-7.35-7-10.69-8.32a58.37,58.37,0,0,0-12.24-3c-4-.45-10.22.5-13,2.64a1.13,1.13,0,0,0-.2,1.58A1.14,1.14,0,0,0,95.13,4.53Z"/><path class="cls-3" d="M122.65,43.6a2.2,2.2,0,1,0-2.2,2.2A2.21,2.21,0,0,0,122.65,43.6Z"/><path class="cls-3" d="M96.24,43.05a2.2,2.2,0,1,0,2.2-2.2A2.2,2.2,0,0,0,96.24,43.05Z"/><path class="cls-3" d="M111.94,43.77a.73.73,0,0,0-.81.64,42.42,42.42,0,0,0,.24,10.11.74.74,0,0,0,.72.61h.12a.72.72,0,0,0,.6-.84,42.16,42.16,0,0,1-.23-9.7A.72.72,0,0,0,111.94,43.77Z"/><path class="cls-3" d="M127,36.79a1.13,1.13,0,1,0,1.27-1.86,9.18,9.18,0,0,0-6.1-1.69c-1.86.15-5.54.75-7.58,2.11a1.13,1.13,0,0,0,.63,2.07,1.1,1.1,0,0,0,.62-.19,16.27,16.27,0,0,1,6.5-1.74A6.88,6.88,0,0,1,127,36.79Z"/><path class="cls-3" d="M104.86,37a1.12,1.12,0,0,0,.62-2.06c-2-1.37-5.73-2-7.57-2.11A8.91,8.91,0,0,0,91.8,34.5a1.13,1.13,0,0,0,1.27,1.86,6.62,6.62,0,0,1,4.67-1.3,15.94,15.94,0,0,1,6.49,1.74A1.21,1.21,0,0,0,104.86,37Z"/><path class="cls-3" d="M100.94,63.91c.11.07.24.13.36.19a9,9,0,0,0,5,5.46,13.87,13.87,0,0,0,4.27.63,11.77,11.77,0,0,0,4-.64,6.9,6.9,0,0,0,3.79-4.85c.14,0,.29-.09.43-.15a.86.86,0,0,0,.47-1.14.87.87,0,0,0-1.14-.48,19.54,19.54,0,0,1-7.91,1.3,20.72,20.72,0,0,1-7.74-1.5h0c-.22-.1-.43-.21-.62-.32a.88.88,0,1,0-.89,1.51ZM111,66a21.91,21.91,0,0,0,5.26-.67,4.63,4.63,0,0,1-2.35,2.57,12,12,0,0,1-7.11,0,6.87,6.87,0,0,1-3.15-2.84,27.31,27.31,0,0,0,6.44.93Z"/><path class="cls-1" d="M29.09,54.9a1.28,1.28,0,0,1-.74-.24L6.7,38.51a1.24,1.24,0,1,1,1.49-2L29.84,52.66a1.24,1.24,0,0,1-.75,2.24Z"/><path class="cls-1" d="M19.77,73.87a1.18,1.18,0,0,1-.48-.1L.76,65.88a1.24,1.24,0,0,1,1-2.29l18.53,7.89a1.24,1.24,0,0,1-.49,2.39Z"/><path class="cls-1" d="M54.15,31.18a1.24,1.24,0,0,1-1.1-.68l-8-15.59a1.24,1.24,0,1,1,2.21-1.14l8,15.6A1.24,1.24,0,0,1,54.72,31,1.15,1.15,0,0,1,54.15,31.18Z"/><path class="cls-1" d="M150.85,39.65a1.24,1.24,0,0,1-1-2l13.21-18.16a1.24,1.24,0,0,1,1.73-.28,1.25,1.25,0,0,1,.28,1.74L151.86,39.13A1.23,1.23,0,0,1,150.85,39.65Z"/></g></g></svg>