<svg xmlns="http://www.w3.org/2000/svg" viewBox="0 0 327.36 244.12"><defs><style>.cls-1{fill:#1e2050;}.cls-2{fill:#ed9322;}.cls-3{fill:#292f6e;}</style></defs><g id="Layer_2" data-name="Layer 2"><g id="Layer_1-2" data-name="Layer 1"><path class="cls-1" d="M130.59,40.91c-1.29-6.14.38-15,4.34-20.73,2.83-4.09,8.63-7.12,12.08-6.58A15.48,15.48,0,0,1,157.8,9.45a41.41,41.41,0,0,1,14,2.37,20.77,20.77,0,0,1,8.73,5.39c2.81,2.7,5.4,8.42,6.37,12.94A34.84,34.84,0,0,1,187,41.26c-1.26.59-2.68,3.08-3.15,4.86-.29,1.11-1.21,1.07-1.25.06-.07-1.73-.13-5.86-.24-6.94a5.81,5.81,0,0,0-1.5-3.4,22.2,22.2,0,0,1-1.52-8.7c-5.07.43-12.62-1.73-13.81-5-5.93,1.62-14.45.11-18.11-3.55-2.48,3.47-6.19,7.23-9.71,8.41a15.33,15.33,0,0,1-.76,8.3A13,13,0,0,0,135,41.48c0,1.51-.18,3.77-.24,4.74s-.78.77-1,0C133.45,44.63,132.24,41.56,130.59,40.91Z"/><path class="cls-2" d="M159.19,108.82a24.38,24.38,0,0,0-10.14,5.93c2.91,1.78,5.39,7.06,6.36,8.84-3.34,14.94-6.09,37.91-7,57.38,3.35,10.78,6.37,20.6,11.87,34.08,4.74-16.18,7.65-27.29,9.92-35.59,0-19.74-5.13-48.56-6.9-56.08,1.13-1.94,3.93-6.85,6-8C167.49,112.05,162.75,109.38,159.19,108.82Z"/><path class="cls-3" d="M83.77,150.59a1,1,0,0,0,1-1c0-8.42,2.29-23.48,3-27.12.64-3.19,1.39-6.24,2.56-6.89a1,1,0,0,0,.38-1.32,1,1,0,0,0-1.32-.38c-1.78,1-2.62,3.65-3.53,8.21-.74,3.68-3,18.94-3,27.5A1,1,0,0,0,83.77,150.59Z"/><path class="cls-3" d="M106.1,207.27a1.12,1.12,0,0,0-1.55.35,14.12,14.12,0,0,1-2,2.47c-.38.4-.82.86-1.37,1.46-4.65,5.06-10.57,4.7-14.89,4.44a16.81,16.81,0,0,0-4.07,0c-2.44.54-9,1.23-14.86,1.83L66,218a11.92,11.92,0,0,0,1.28-1.73c2.72-4.47,2.58-9.2,2.11-14.92a24.91,24.91,0,0,0-5.15-13.77,17.55,17.55,0,0,1,2.6.1c.43.05,1.15.19,2,.35,2.61.5,6.56,1.26,9.5.86a6.27,6.27,0,0,1,2.51.22,5.94,5.94,0,0,0,3.11.1,2.73,2.73,0,0,0,2-1.65c.3-.76.38-2.1-.89-4.1s-1.26-3.56-1.26-6.15c0-.93.13-3.72.3-7.26.17-3.71.39-8.32.54-12.54a1,1,0,0,0-.94-1,1,1,0,0,0-1,.94c-.15,4.21-.37,8.82-.54,12.52s-.3,6.37-.3,7.35c0,2.64,0,4.73,1.56,7.19,1,1.48.79,2.18.72,2.36s-.12.32-.64.46a4,4,0,0,1-2.15-.11,8.06,8.06,0,0,0-3.22-.25c-2.63.35-6.39-.37-8.88-.85-.92-.17-1.64-.31-2.15-.37a19.16,19.16,0,0,0-4.35,0,14.53,14.53,0,0,1-1.29-1.68,12.25,12.25,0,0,0-2.83-3.23,41.85,41.85,0,0,0-4.8-2.82l-.18-.09a1.13,1.13,0,0,0-1.06,2l.18.09a39.16,39.16,0,0,1,4.51,2.64,10.19,10.19,0,0,1,2.32,2.68,13.59,13.59,0,0,0,1.83,2.3,1.16,1.16,0,0,0,.45.24l.36.37a28.71,28.71,0,0,1,2.37,10.3,33.88,33.88,0,0,1-.28,4.53,1.12,1.12,0,0,0-1-.13,48.24,48.24,0,0,1-12.32,2.46,19.3,19.3,0,0,1-5.26-.23c-.81-.13-1.71-.27-3-.38-3.37-.29-4.2-.53-6.39-1.86l-.74-.45a28.36,28.36,0,0,0-5.11-2.61,1.15,1.15,0,0,0-1.48.61A1.13,1.13,0,0,0,29.6,202a25.8,25.8,0,0,1,4.8,2.45l.75.45c2.5,1.52,3.67,1.87,7.37,2.19,1.16.1,2,.23,2.8.35a20.43,20.43,0,0,0,3.65.34c.61,0,1.3,0,2.12-.09s1.82-.16,2.83-.28a33.62,33.62,0,0,0,1.1,3.9s-.07,0-.11,0a1,1,0,0,0-.82,1.11,14.64,14.64,0,0,0,3.25,6.89,4.22,4.22,0,0,0,3.22,1.42,1.1,1.1,0,0,0,.45.1h.12c1.88-.21,4.11-.44,6.43-.68,6.17-.65,12.54-1.32,15.11-1.87a15.53,15.53,0,0,1,3.46,0c4.5.27,11.31.69,16.68-5.16.53-.59,1-1,1.34-1.43a15.81,15.81,0,0,0,2.3-2.83A1.11,1.11,0,0,0,106.1,207.27Zm-38.67-5.75c.41,5,.55,9-1.25,12.68H63.37a12.29,12.29,0,0,0,1.9-4.92,58.79,58.79,0,0,0,1.22-10.73,24.23,24.23,0,0,0-.27-3.15A26.56,26.56,0,0,1,67.43,201.52ZM64,205.1c-.19,1.21-.4,2.48-.64,3.84-.58,3.25-2,5.14-3.06,5.26s-1.93-.19-2.84-2.1a24.31,24.31,0,0,1-1.6-5A42.89,42.89,0,0,0,64,205.1Zm-7.23,9.54a3.93,3.93,0,0,0,3.15,1.54l.49,0H65a7.07,7.07,0,0,1-2.78,2.27l-1.33.15a1.06,1.06,0,0,0-.47.17,2.19,2.19,0,0,1-1.58-.71A13,13,0,0,1,56.76,214.64Z"/><path class="cls-3" d="M27.67,198.85c-1.83-.64-4.44-1.79-5.89-2.45a2.62,2.62,0,0,1-1.33-2.12,1.3,1.3,0,0,1,1-1c.53-.19,2.35.38,4.72,2.27a1,1,0,0,0,.61.22,7.41,7.41,0,0,1,1.52.33c.54.15,1.15.32,1.87.46l.58.09a22.58,22.58,0,0,1,5.4,1.24,1,1,0,0,0,.87-1.75,23.06,23.06,0,0,0-6-1.42l-.53-.08c-.61-.12-1.18-.28-1.68-.42a11,11,0,0,0-1.69-.38,18.62,18.62,0,0,0-1.82-1.26,28.67,28.67,0,0,1,4.41.44,1,1,0,0,0,.36-1.92,30.12,30.12,0,0,0-7.61-.38A35.05,35.05,0,0,0,17,190.4c-1.19-.43-4.31-1.4-6.17-.41a2.45,2.45,0,0,0-1.3,1.67,4.63,4.63,0,0,0-.09.62c-1.7,0-4.28,0-5.72-.1a1.72,1.72,0,0,1-1.22-.64.89.89,0,0,1-.22-.66c.1-.56.4-1.23,1.77-1.42a28.07,28.07,0,0,1,7.17-.2,1,1,0,0,0,.39,0,67.53,67.53,0,0,1,7.21-.69,42.55,42.55,0,0,1,7.09.23c1.19.2,2.13.36,2.44-.67s-.59-1.4-1.38-1.76l-.25-.11a13.51,13.51,0,0,0-3.68-.93l-.33,0c-.58-.09-1.63-.33-2.73-.59-1.31-.3-2.66-.61-3.66-.78l-1.37-.24a27.75,27.75,0,0,0-4.39-.58,48.46,48.46,0,0,1-6.12-.7c-1.42-.23-2.14-.68-2.14-1.31s.81-1.37,2.13-1.63a18.08,18.08,0,0,1,6.89.4,1.24,1.24,0,0,0,.27,0l1.41,0c1.55,0,3.67-.06,5.93,0a42.08,42.08,0,0,1,8.87,1.38,1.16,1.16,0,0,0,.49,0,24.73,24.73,0,0,1,4.76-.38c1.12.07,2.87,0,4.27,0l1.47,0A2.38,2.38,0,0,0,41,179.67a2.19,2.19,0,0,0-.21-2.29,14.63,14.63,0,0,0-3-2.68c-1.24-.95-4.14-3.19-5.54-5.79-1.59-3-.61-4.81-.27-5.3a.71.71,0,0,1,.65-.34,1.7,1.7,0,0,1,1.31.9,12.16,12.16,0,0,0,2.63,3.27c1.09,1,4.69,4.59,6.23,6.13a30.92,30.92,0,0,0,5,3.59l1.57,1a1.12,1.12,0,0,0,1.25-1.87c-.47-.32-1-.67-1.62-1A29.76,29.76,0,0,1,44.42,172c-1.55-1.55-5.17-5.18-6.31-6.21a9.89,9.89,0,0,1-2.23-2.8A3.92,3.92,0,0,0,32.71,161a3,3,0,0,0-2.55,1.3c-1.4,2-1.35,4.88.14,7.65,1.62,3,4.79,5.47,6.17,6.53a15.16,15.16,0,0,1,2.44,2.12h-.14l-1.51,0c-1.36,0-3.06,0-4.08,0a25.48,25.48,0,0,0-5.09.37,44.4,44.4,0,0,0-9.1-1.38c-2.32-.08-4.56,0-6,0l-1.24,0A20.36,20.36,0,0,0,4,177.23c-2.9.58-3.93,2.36-3.93,3.84,0,1.07.52,3,4,3.54a54.2,54.2,0,0,0,6.43.72,25.9,25.9,0,0,1,4,.54l1.41.25c.39.07.86.16,1.36.27a59.08,59.08,0,0,0-5.95.62,30.6,30.6,0,0,0-7.61.22A4,4,0,0,0,0,190.47a3.13,3.13,0,0,0,.66,2.45,4,4,0,0,0,2.85,1.51c1.17.07,3,.12,4.58.12l1.65,0a1,1,0,0,0,.29-.07,6.35,6.35,0,0,0,4.15,2.32A20.76,20.76,0,0,0,21,198.21c1.5.67,4.12,1.83,6,2.49a1.25,1.25,0,0,0,.32.05,1,1,0,0,0,.92-.65A1,1,0,0,0,27.67,198.85Zm-13-4a4.53,4.53,0,0,1-3-1.56,1.44,1.44,0,0,1-.24-1.2.58.58,0,0,1,.32-.4c.78-.41,2.79-.17,4.76.58a1.14,1.14,0,0,0,.41.07,18.43,18.43,0,0,1,2.41,0,2.9,2.9,0,0,0-.78,1.63,3.39,3.39,0,0,0,.38,2,14.44,14.44,0,0,1-4-1.08A1,1,0,0,0,14.63,194.87Z"/><path class="cls-3" d="M39.86,183.32a1,1,0,0,0-1.57,1.16c2,2.73,7.05,7.67,13,8.87l.19,0a1,1,0,0,0,.19-1.93C46.29,190.35,41.59,185.65,39.86,183.32Z"/><path class="cls-3" d="M218.71,103.66c1.93.39,3.59.72,4.15,1.51a1.1,1.1,0,0,0,.92.48,1.12,1.12,0,0,0,.92-1.77c-1.07-1.53-3.14-1.95-5.54-2.43-.67-.13-1.37-.27-2.1-.45-2.56-.61-5.89-1.57-9.11-2.51L205,97.64c-4.1-1.18-10.28-3-16.61-5.47a37,37,0,0,0-9.73-6.61c0-.48-.07-1-.1-1.51s-.08-1.25-.14-2v-.22a10.48,10.48,0,0,1,1.29-7,26.46,26.46,0,0,0,2.35-8.62c.12-.81.23-1.6.37-2.34l0-.13c.05-.29.1-.54.15-.8a3.47,3.47,0,0,0,1.06.18,4.14,4.14,0,0,0,.7-.06,5.81,5.81,0,0,0,3.81-3.16,17.4,17.4,0,0,0,1.07-5.27,38.93,38.93,0,0,1,.63-4.23l.12-.52c.88-3.78,1.52-7.31-.32-8.95a2.6,2.6,0,0,0-.88-.5l.06-.42a36.75,36.75,0,0,0,.22-9c-.41-5.85-2.37-10.09-5.19-14.64A1.12,1.12,0,1,0,182,17.61c2.72,4.4,4.48,8.21,4.85,13.62a33.9,33.9,0,0,1-.2,8.47c0,.27-.08.52-.11.76a1.27,1.27,0,0,0,0,.28c-1.51.93-2.59,3.14-3.2,5.28.05-2.67.1-6.59,0-7.47a5.61,5.61,0,0,0-1.5-3.19,26,26,0,0,1-1.08-6.21,1.08,1.08,0,0,0-.48-.87,10.12,10.12,0,0,0,2-.42,1.13,1.13,0,1,0-.73-2.13c-3.37,1.15-11.33-.36-14.21-2.68a.71.71,0,0,0-.15-.08c.63-.26,1.25-.53,1.86-.82a1.13,1.13,0,1,0-.95-2c-3,1.39-5.84,2.52-10.05,2.15-3.63-.32-5.89-1.65-8.81-4A1.13,1.13,0,0,0,147.85,20c3.19,2.56,5.85,4.12,10,4.48.62.06,1.21.08,1.78.08a18,18,0,0,0,5.94-1A1.11,1.11,0,0,0,166,24.8c2.62,2.13,8.17,3.58,12.53,3.58l.38,0a1.13,1.13,0,0,0-.35.84,28.6,28.6,0,0,0,1.23,7,1.09,1.09,0,0,0,.22.41,3.73,3.73,0,0,1,1.14,2.21c.11.84,0,6.34-.06,9.61a1.13,1.13,0,0,0,.47.94,1.15,1.15,0,0,0,1,.15l1.92-.68a1.13,1.13,0,0,0,.73-.85c.63-3.29,2-5.19,2.74-5.44.08,0,.13,0,.27.08,1,.88,0,5.14-.39,6.75l-.12.53a41,41,0,0,0-.67,4.47,17.47,17.47,0,0,1-.84,4.5,3.61,3.61,0,0,1-2.21,2,1.4,1.4,0,0,1-1-.16,18.22,18.22,0,0,0,.22-3,1.13,1.13,0,0,0-2.25,0,25,25,0,0,1-.73,5.65l0,.14c-.14.77-.27,1.58-.39,2.42a24.35,24.35,0,0,1-2.11,7.9,17.48,17.48,0,0,0-.78,1.7,1.09,1.09,0,0,0-1.18.53c-2.1,3.59-7.1,7.81-10.1,8.52a33.49,33.49,0,0,1-11.47,0,24.24,24.24,0,0,1-14.15-10.73A24.47,24.47,0,0,1,138,65.9c-.13-.84-.25-1.66-.39-2.42a31,31,0,0,1-.69-5.82,1.11,1.11,0,0,0-1.16-1.09,1.13,1.13,0,0,0-1.09,1.16c0,.85.05,1.57.15,2.49a1.28,1.28,0,0,1-1.12.39,3.11,3.11,0,0,1-2-1.72,18,18,0,0,1-.83-4.5,41,41,0,0,0-.67-4.47l-.12-.53c-.38-1.6-1.38-5.87-.39-6.75.14-.12.19-.11.27-.08.73.25,2.11,2.15,2.74,5.44a1.1,1.1,0,0,0,.73.85l1.91.68a1.14,1.14,0,0,0,1-.16,1.1,1.1,0,0,0,.46-.94c-.07-2.59-.16-7-.06-7.84a10,10,0,0,1,1.15-4,1.25,1.25,0,0,0,.22-.41,28.6,28.6,0,0,0,1.23-7,1.11,1.11,0,0,0-.88-1.1,19.36,19.36,0,0,0,8.19-7,1.13,1.13,0,0,0-1.88-1.25c-2.6,3.91-6.64,6.46-8.9,6.59a1.12,1.12,0,0,0-1.06,1.18,1.14,1.14,0,0,0,1.13,1.07H136a7.74,7.74,0,0,0,1.36-.23,1,1,0,0,0-.27.68A25.83,25.83,0,0,1,136,35.39a12.91,12.91,0,0,0-1.49,4.92c-.1.81-.07,3.57,0,5.67-.62-2.13-1.69-4.32-3.2-5.24a.65.65,0,0,0,0-.28c0-.24-.06-.49-.1-.76a33.9,33.9,0,0,1-.2-8.47c.42-6.1,2.13-11.08,4.95-14.41,2.59-3.05,6.47-5.18,8.83-4.84a1.13,1.13,0,1,0,.31-2.23c-3.15-.45-7.72,1.91-10.85,5.61s-5,9.13-5.49,15.71a36.75,36.75,0,0,0,.22,9c0,.15,0,.28.06.42a2.6,2.6,0,0,0-.88.5c-1.85,1.64-1.2,5.17-.32,9l.12.51a41.55,41.55,0,0,1,.63,4.23,17.4,17.4,0,0,0,1.07,5.27,5.28,5.28,0,0,0,3.73,2.92,4.55,4.55,0,0,0,.52,0,3.47,3.47,0,0,0,1.27-.26c.06.39.14.81.22,1.27.14.74.26,1.53.38,2.34a26.21,26.21,0,0,0,2.35,8.62,10.48,10.48,0,0,1,1.29,7l0,.22c0,.73-.09,1.38-.13,2-.09,1.4-.17,2.55-.38,3.88a63.21,63.21,0,0,0-9.59,8.14c-5.61,2.06-12.63,5-17.3,6.93-2.26.94-4,1.68-4.91,2-2.48.95-6.14,2.07-8,2.6-2.06.58-4.73,1.62-5.75,3.24a1.12,1.12,0,0,0,.36,1.55,1.19,1.19,0,0,0,.6.17,1.12,1.12,0,0,0,.95-.53c.47-.75,2.18-1.62,4.45-2.26,1.89-.54,5.63-1.69,8.19-2.66.89-.35,2.69-1.1,5-2,3.75-1.57,9-3.76,13.84-5.63-.76.81-1.87,1.94-3.17,3.23-4.84,4.85-8.92,9-9.8,11.23a1.14,1.14,0,0,0,.45,1.38c1.21.74,3.86,1,7.77,1.44l1.6.16c-3.46,1.22-7.76,2.69-9.28,3.2a1.12,1.12,0,0,0-.77,1.1c.31,12.67,8.8,35.15,14.08,46.34a438.75,438.75,0,0,0,24,43.43,1.1,1.1,0,0,0,.94.52,1.14,1.14,0,0,0,.61-.18,1.12,1.12,0,0,0,.34-1.56,436.55,436.55,0,0,1-23.82-43.17c-5.45-11.57-13.2-32.76-13.83-44.61,3-1,10.05-3.45,12.53-4.41a1.13,1.13,0,0,0,0-2.09,27.71,27.71,0,0,0-6.18-1,53.9,53.9,0,0,1-5.76-.75c1.63-2.36,5.81-6.55,8.72-9.46,1.53-1.53,2.85-2.85,3.61-3.71a1.12,1.12,0,0,0-.08-1.59,1.56,1.56,0,0,0-.28-.16l1.93-.72a1.15,1.15,0,0,0,.45-.3,59.23,59.23,0,0,1,9.77-8.26s0,0,0,0a.76.76,0,0,0,.2-.2l.09-.1a1.19,1.19,0,0,0,.11-.26s0-.08,0-.13h0a36,36,0,0,0,.49-4.6c0-.59.08-1.23.13-1.94l0-.22c.06-.87.12-1.67.1-2.49a25.39,25.39,0,0,0,11.95,7.15,35.54,35.54,0,0,0,12.51,0c3.17-.75,7.27-4,9.9-7.27a22.26,22.26,0,0,0,.1,2.56l0,.22c.05.71.09,1.35.13,1.94a36,36,0,0,0,.49,4.6,1.27,1.27,0,0,0,.06.18s0,.08,0,.12a25.43,25.43,0,0,1,1.55,4.1,1.2,1.2,0,0,0-.56.31,89.87,89.87,0,0,1-18.49,14.14c-7.95-4.35-15.35-11.06-17.51-14.13a1.12,1.12,0,1,0-1.84,1.29c2.37,3.38,9.15,9.32,16,13.5a18.92,18.92,0,0,0-5.55,3.35l-.6.47a23.15,23.15,0,0,0-3.74,3.85c-.34.41-.66.8-1,1.14l-.12.14c-.16-.3-.34-.69-.45-.92s-.34-.72-.59-1.23c-1.29-2.64-4-8.14-4.47-11.94a1.12,1.12,0,1,0-2.23.28c.53,4.18,3.23,9.69,4.68,12.65l.57,1.18c.6,1.3,1.07,2.33,2.13,2.49H145a2.73,2.73,0,0,0,1.92-1.16c.33-.37.66-.77,1-1.21s.72-.86,1.11-1.31a49.27,49.27,0,0,0,3.7,5.23c.65.84,1.23,1.58,1.65,2.2-3.69,13.78-6.26,39.32-6.54,53-5.93-19.67-11.52-41.42-12.8-50.66-1.93-13.88-.24-24.5,5.3-33.42a1.13,1.13,0,1,0-1.91-1.19c-5.84,9.4-7.62,20.49-5.62,34.92,2.21,16,16.33,66.18,24.2,83.74a1.13,1.13,0,0,0,1,.67,1.06,1.06,0,0,0,.46-.1,1.13,1.13,0,0,0,.57-1.49c-2.73-6.1-6.31-16.5-9.88-28.05a1.12,1.12,0,0,0,.88-1.09c-.15-12.47,2.57-41.59,6.62-56.27a1.16,1.16,0,0,0-.13-.89c-.48-.78-1.21-1.71-2-2.79a45,45,0,0,1-3.68-5.22,2.41,2.41,0,0,0-.21-.24c.22-.2.44-.4.68-.58l.62-.48c1.87-1.48,4.42-3.49,7.36-3.39a13.49,13.49,0,0,1,6.72,3.19c.37.29.7.54,1,.73a4.79,4.79,0,0,1,1,.86,47.09,47.09,0,0,1-3.61,5.15c-.82,1.07-1.54,2-2,2.77a1.15,1.15,0,0,0-.14.87c3.65,14.72,6.72,43.74,6.58,56.29a1.14,1.14,0,0,0,.11.49c-1.61,6-3.21,11.82-4.69,17.23-2.2,8.07-4.11,15-5.25,19.48-1.06,4.13-1,16.56-1,21.06,0,.85,0,1.66,0,2.43s0,1.38,0,2a1.14,1.14,0,0,0,1.13,1.1h0a1.13,1.13,0,0,0,1.11-1.15c0-.64,0-1.31,0-2s0-1.6,0-2.46c0-4.36-.09-16.63.89-20.47,1.14-4.41,3-11.38,5.25-19.45,6.45-23.64,15.29-56,16.32-66,1.84-17.76.33-35.79-3.67-44v0a34.89,34.89,0,0,1,8,5.72.9.9,0,0,0,.38.25l1.25.49h0a1.13,1.13,0,0,0-.2,1.58l.09.12c6.19,8,10.15,13.41,11.79,16.1a100.23,100.23,0,0,1-9.89,2,1.13,1.13,0,0,0-1,1.07,1.11,1.11,0,0,0,.86,1.14c2.83.67,8,1.7,10.81,2.15-.28,7.18-2.19,16.3-5.82,27.84a1.14,1.14,0,0,0,.74,1.41,1.33,1.33,0,0,0,.34,0,1.12,1.12,0,0,0,1.07-.79c3.87-12.27,5.81-21.91,5.95-29.46a1.1,1.1,0,0,0-1-1.13c-1.22-.17-3.59-.59-6-1.07,2.18-.45,4.33-1,5.89-1.44a1.18,1.18,0,0,0,.7-.63,1.12,1.12,0,0,0,0-.93c-1.49-3.15-9.34-13.34-12.37-17.26,5.32,1.94,10.3,3.38,13.79,4.39l2.92.84c3.24.95,6.6,1.92,9.22,2.55C217.3,103.38,218,103.52,218.71,103.66Zm-51.32,7.78a18.77,18.77,0,0,0-5-2.93,96.21,96.21,0,0,0,16.67-13c.45,1.92.84,4.06,1.15,6.37a1.1,1.1,0,0,0-1,1,13.74,13.74,0,0,1-1,4.58c-.68,2-3.93,6.46-5.13,8a1.82,1.82,0,0,1-1.13.81c-.05,0-.13,0-.25-.16s-.28-.41-.44-.64a12.38,12.38,0,0,0-3-3.44C168,111.91,167.71,111.69,167.39,111.44ZM180.44,132c-.68,6.6-4.92,23.46-9.59,41-.66-14.25-3.3-36.77-6.37-49.44.42-.61,1-1.36,1.64-2.2,1-1.32,2.23-2.92,3.27-4.58l0,0c.16.25.32.48.47.68a2.54,2.54,0,0,0,2,1.12,3.82,3.82,0,0,0,3-1.68c.18-.24,4.55-5.88,5.49-8.68.16-.51.3-.92.42-1.29A138.57,138.57,0,0,1,180.44,132Z"/><path class="cls-3" d="M228.54,106.83c.64.3,2.31,3.33,3.09,7.84.52,3,.57,11,.61,16.83,0,2.48,0,4.62.08,6.12.13,4.63.78,13.41,2,18.61.56,2.39,1.29,5.39,2.11,8.67a1.11,1.11,0,0,0,1.09.85,1.24,1.24,0,0,0,.27,0,1.13,1.13,0,0,0,.82-1.37c-.82-3.26-1.54-6.25-2.1-8.64a110.79,110.79,0,0,1-1.93-18.16c0-1.47-.06-3.6-.08-6.07,0-6.22-.09-14-.64-17.2-.45-2.58-2.21-9.36-5-9.67a1.16,1.16,0,0,0-1.28,1A1.09,1.09,0,0,0,228.54,106.83Z"/><path class="cls-3" d="M230.22,211.56l.31,0c1.4-.22,2.42-1.81,2.42-3.77V206.5a23,23,0,0,1,.29-4.87,1.13,1.13,0,0,0-.87-1.34,1.12,1.12,0,0,0-1.33.87,25,25,0,0,0-.34,5.35v1.26a2.19,2.19,0,0,1-.47,1.5,2,2,0,0,1-.37-.74c-.78-2.43-.41-6.4.88-9.43,2-4.75,6.89-10.23,10.44-12.77a1.13,1.13,0,1,0-1.32-1.83,37.66,37.66,0,0,0-11.2,13.72c-1.5,3.53-1.89,8.06-.94,11C228.37,211.27,229.58,211.56,230.22,211.56Z"/><path class="cls-3" d="M324.92,184a19.34,19.34,0,0,0-8.16-2.57c-1.52-.58-6.5-2.42-9.22-3.33.37-.33.66-.61.84-.79a3.13,3.13,0,0,0,1.14-2.35,2.38,2.38,0,0,0-1-1.75c-1.19-1-3.8-1.11-5.79.25-.58.39-1,.71-1.41,1a11.24,11.24,0,0,0-4.15-2.63c-.61-.2-1.34-.37-2.05-.55l-.09,0c.66.1,1.28.22,1.71.31l.92.17a11.68,11.68,0,0,0,1.64.09c2.11,0,5.3-.25,7.26-.46a3.06,3.06,0,0,0,2.86-2.27,4.2,4.2,0,0,0-1.8-4.29c-2.18-1.47-5.89-1.9-8.39-1.83l-.89,0a61,61,0,0,1-7.18,0,20.26,20.26,0,0,1-2.49-.46,19.35,19.35,0,0,0-4-.61c-1.47,0-3.82,0-6.3.2a1,1,0,0,0-.91,1,1,1,0,0,0,1,.91c2.38-.16,4.72-.24,6.11-.2a17.26,17.26,0,0,1,3.64.56,21.09,21.09,0,0,0,2.73.5,63.23,63.23,0,0,0,7.44,0l.89,0c2.39-.09,5.56.36,7.23,1.5a2.27,2.27,0,0,1,1,2.19c0,.18-.17.7-1.17.81a52.8,52.8,0,0,1-8.39.38c-.22,0-.51-.09-.84-.16-1.85-.37-4.51-.89-6.22-.08l-.28-.19a25.62,25.62,0,0,0-2.68-1.7,1.12,1.12,0,0,0-1.52.47,1.14,1.14,0,0,0,.47,1.53,20.53,20.53,0,0,1,2.44,1.55h0c-.32.18-.62.38-.9.57-1.68,1.12-2.17,2.29-2.74,4.6a14.19,14.19,0,0,0-2.28,2.67h0a8,8,0,0,0-2.78.58,1.13,1.13,0,0,0,.79,2.11,4.74,4.74,0,0,1,2.32-.41,1.12,1.12,0,0,0,1.18-.48,13.5,13.5,0,0,1,2.34-2.85l.25-.24a1.17,1.17,0,0,0,.3-.53c.6-2.5.91-2.93,1.88-3.57a8.36,8.36,0,0,1,1.23-.74,2.68,2.68,0,0,1,0,.4,17.26,17.26,0,0,1-.33,4.37c-.05.23-.08.44-.11.62a1.37,1.37,0,0,1-.35.68,6.69,6.69,0,0,0-.88,1.59,25.09,25.09,0,0,1-1.09,2.56,1.87,1.87,0,0,1-1.51,1,7.17,7.17,0,0,0-1.8.6,15.22,15.22,0,0,1-3.26,1.08,17.86,17.86,0,0,1-6.84-.38,6.69,6.69,0,0,1-1.75-.62,6.23,6.23,0,0,0-2-.68c-2-.3-3.81,1.05-5.1,2s-3.63,3-5.09,4.28c-1.91-2-3.57-5.2-3.27-10.31a.77.77,0,0,0,0-.26c.09-.55.19-1,.3-1.47.8-3,3.09-5.27,4.74-6.73,1.35-1.2,3-2.51,4.27-3.57.59-.48,1.12-.91,1.47-1.21a14.69,14.69,0,0,1,6.48-2.38,1.13,1.13,0,0,0-.29-2.24,17.06,17.06,0,0,0-7.56,2.83c-.41.35-.94.78-1.52,1.25L264,167.57h0c-2.26-.35-5.71,2.26-9.38,5.24-.89.73-2.74,2-4.7,3.26-4,2.66-6.59,4.41-7.41,5.5,0,0,0-.07,0-.1-.16-1.79-.35-3.82-2.1-5.19-.81-.63-1.25-1.62-.93-4.6a1.14,1.14,0,0,0-1-1.24,1.12,1.12,0,0,0-1.23,1c-.27,2.51-.23,5.05,1.79,6.62,1,.76,1.1,2.09,1.24,3.61s.74,2.4,1.69,2.61a1.32,1.32,0,0,0,.37.05,2.39,2.39,0,0,0,2-1.42c.47-.74,4.46-3.38,6.84-5,2-1.34,3.9-2.59,4.92-3.42.6-.49,1.57-1.27,2.62-2.06a13.81,13.81,0,0,0-2.94,5.32c-.91,3.4-1.16,10.63.51,14.68s4.29,6.29,7.94,7a4.19,4.19,0,0,0,.57.09c-4,1.67-9,4.41-13.21,6.7-1.66.9-3.18,1.73-4.44,2.39-1.49.77-2.74,1.48-3.85,2.11a22.87,22.87,0,0,1-7,3c-4.44.94-8,.77-11.06-.54a22.92,22.92,0,0,1-9.58-8.64,1.13,1.13,0,0,0-1.15-.53c.15-1.82.33-3.44.57-4.76,1-5.41,2.64-18.82,4.1-30.65,1-7.86,1.88-15.29,2.52-19.75a1.14,1.14,0,0,0-1-1.28,1.12,1.12,0,0,0-1.27,1c-.64,4.49-1.56,11.92-2.53,19.8-1.45,11.8-3.1,25.17-4.07,30.52-1.46,8-1.15,32.38.05,43.74a1.13,1.13,0,0,0,1.12,1h.12a1.12,1.12,0,0,0,1-1.24,322.43,322.43,0,0,1-.82-35.72,25.33,25.33,0,0,0,10,8.63,17.24,17.24,0,0,0,6.77,1.31,27.85,27.85,0,0,0,5.63-.64,25.21,25.21,0,0,0,7.63-3.29c1.09-.62,2.32-1.32,3.78-2.08,1.27-.66,2.8-1.49,4.48-2.41,5-2.71,11.18-6.09,15.18-7.43a1.09,1.09,0,0,0,.54-1.72,10.17,10.17,0,0,0,2.8-2.28c1.92-2,3.39-7.61,3.76-9.14a18.74,18.74,0,0,0,7.25.29,17.73,17.73,0,0,0,3.71-1.22,6.48,6.48,0,0,1,1.23-.44c.15,0,.27-.07.41-.1a1,1,0,0,0,.79.86l.28,0a22.28,22.28,0,0,0,3.7.42,5.78,5.78,0,0,0,2.25-.38l.63-.29a1,1,0,0,0,.57.42c2.47.63,3.9.93,5.71,1.3l.45.1a37.9,37.9,0,0,0,4.92.6l.88.07c.75.06,1.81.12,3,.19,1.64.1,3.5.21,4.79.34,1.72.18,2.34.29,3,.41l.53.09a9.37,9.37,0,0,0,1.45.13,4.19,4.19,0,0,0,1.78-.35,1,1,0,0,0,.47.23,7.77,7.77,0,0,0,1.55.17c2.1,0,2.85-1.12,3.11-2.17A4.41,4.41,0,0,0,324.92,184Zm-57.57,4c1.19-.91,2.26-1.67,3.23-1.61a15.45,15.45,0,0,1-2.23,5.69,3.59,3.59,0,0,1-4.32.71,11.64,11.64,0,0,1-1.41-.83C264.05,190.61,266.3,188.73,267.35,187.93Zm-9.05,3.68a11.76,11.76,0,0,1-.64-2.21,13.35,13.35,0,0,0,5.49,5.07,6.33,6.33,0,0,0,1.4.49l-2.06,1.46-.1.08A9.35,9.35,0,0,1,258.3,191.61Zm11.19,3.67c-1.54,1.62-2.53,2.51-4.88,2,1.49-1.06,3.45-2.47,4.48-3.29a1,1,0,0,0,.14-.17,4.73,4.73,0,0,0,.6-.57,16.61,16.61,0,0,0,2.61-6.32l.28.12C272.07,189.75,270.73,194,269.49,195.28ZM306,179.92c1.33.41,4,1.35,6.23,2.18a18,18,0,0,0-3.87-.45c-.42,0-.82,0-1.2-.05-1.07-.4-1.88-.66-2.64-.87l1.15-1A1.32,1.32,0,0,0,306,179.92Zm-9.48-6a9.05,9.05,0,0,1,3.19,2l-.12.13c-.57.29-1.06.51-1.48.71a7.55,7.55,0,0,0-2.77,1.76h-.05a19.25,19.25,0,0,0-2.48.09h0c0-.17.06-.36.1-.57a19.45,19.45,0,0,0,.37-4.91v-.08c.43.12.88.23,1.33.34C295.31,173.59,296,173.75,296.51,173.93Zm-2.77,11.45c-1,.42-2.87.16-4.4-.09a3.94,3.94,0,0,0,.93-1.17,25,25,0,0,0,1.18-2.75c0-.08.07-.15.1-.22a1.18,1.18,0,0,0,.39-.19c.56-.47,1.78-.47,3.33-.46h.52a1,1,0,0,0,.78-.39,5.07,5.07,0,0,1,2.35-1.55c.48-.22,1-.48,1.7-.82a1,1,0,0,0,.31-.24,12,12,0,0,1,2.91-2.48,3.43,3.43,0,0,1,3.46-.35c.17.13.27.26.27.34s0,.3-.56.87a81.77,81.77,0,0,1-7.55,6.37A63.47,63.47,0,0,1,293.74,185.38Zm27.61,3a3.86,3.86,0,0,1-2.09.05l-.51-.08c-.66-.12-1.35-.24-3.14-.43-1.33-.14-3.22-.25-4.88-.34-1.13-.07-2.17-.13-2.9-.19l-.9-.07a38.13,38.13,0,0,1-4.67-.57l-.46-.1c-1.46-.3-2.69-.56-4.42-1,1.38-.77,2.69-1.55,3.08-1.78a24.55,24.55,0,0,0,2.2-1.65.05.05,0,0,1,0,0,26.24,26.24,0,0,1,3.89,1.17,1.14,1.14,0,0,0,.25.06c.46,0,.94.06,1.45.07a14.52,14.52,0,0,1,4.41.64.81.81,0,0,0,.27,0h.31a15.89,15.89,0,0,1,4,.48c1.84.58,3.46,1.48,3.86,2.15A1.66,1.66,0,0,1,321.35,188.42Zm3.76-.54c-.05.2-.17.63-1.74.37a3.94,3.94,0,0,0-.58-2.32,3.88,3.88,0,0,0-.89-1,13.73,13.73,0,0,1,1.84.92A2.36,2.36,0,0,1,325.11,187.88Z"/><path class="cls-3" d="M270.91,174.23a1,1,0,0,0,1,.83H272c4.2-.62,9-2.68,11.44-4.89a1,1,0,0,0,.06-1.38,1,1,0,0,0-1.37-.06c-2.14,1.94-6.62,3.84-10.41,4.41A1,1,0,0,0,270.91,174.23Z"/><path class="cls-3" d="M194.52,152.66a1.12,1.12,0,0,0-1.43.7c-1.42,4.15-2.84,8-4.1,11.5-.53,1.45-1,2.81-1.48,4.08-4.51,12.57-9.63,22.38-16.92,35.92-1.44,2.69-3.43,5.84-5.19,8.62-.86,1.37-1.64,2.61-2.25,3.62a1.12,1.12,0,0,0,.39,1.54,1.13,1.13,0,0,0,1.54-.38c.6-1,1.38-2.23,2.23-3.58,1.77-2.81,3.78-6,5.27-8.75,7.33-13.63,12.49-23.51,17-36.23.46-1.26,1-2.63,1.48-4.07,1.26-3.46,2.68-7.37,4.11-11.54A1.12,1.12,0,0,0,194.52,152.66Z"/><path class="cls-3" d="M107.66,199.76a1.13,1.13,0,0,0-1,1.21c.56,7.39,1.25,28.59-.38,41.89a1.13,1.13,0,0,0,1,1.25h.13a1.13,1.13,0,0,0,1.12-1c1.65-13.49,1-34.86.39-42.33A1.13,1.13,0,0,0,107.66,199.76Z"/><path class="cls-3" d="M103.79,175c.56,5.36,1.14,10.9,1.82,16,.21,1.55.4,3.23.57,5a1.14,1.14,0,0,0,1.12,1h.12a1.12,1.12,0,0,0,1-1.23c-.18-1.79-.38-3.49-.59-5.06-.67-5.11-1.25-10.64-1.81-16-.92-8.78-1.79-17.08-2.91-21.72-.28-1.16-.62-2.52-1-4-2.17-8.76-5.45-22-5.45-28.08a1.13,1.13,0,1,0-2.25,0c0,6.36,3.32,19.76,5.52,28.62.36,1.49.7,2.84,1,4C102,158,102.88,166.24,103.79,175Z"/><path class="cls-3" d="M223.14,110.44l-.13,2a190,190,0,0,1-2.38,22.42,1.13,1.13,0,0,0,.89,1.32l.22,0a1.11,1.11,0,0,0,1.1-.91c1.38-7.17,1.9-15.06,2.42-22.7l.13-2a1.13,1.13,0,0,0-1-1.2A1.14,1.14,0,0,0,223.14,110.44Z"/><path class="cls-3" d="M149.1,9.8c1.72-1.64,8.28-2.69,11.92-2.29a56.09,56.09,0,0,1,11.51,2.8,21.34,21.34,0,0,1,7.1,4.41,1.13,1.13,0,1,0,1.57-1.62,23.6,23.6,0,0,0-7.85-4.88,57.16,57.16,0,0,0-12.08-2.94c-3.85-.43-11.31.59-13.72,2.88a1.13,1.13,0,0,0,0,1.6A1.12,1.12,0,0,0,149.1,9.8Z"/><circle class="cls-3" cx="169.78" cy="48.57" r="2.17"/><path class="cls-3" d="M148.53,46.55a2.17,2.17,0,1,0,2.17,2.17A2.17,2.17,0,0,0,148.53,46.55Z"/><path class="cls-3" d="M161.65,48.72a.74.74,0,0,0-.82.64,42.37,42.37,0,0,0,.24,10,.73.73,0,0,0,.72.61h.12a.72.72,0,0,0,.6-.84,41,41,0,0,1-.22-9.57A.74.74,0,0,0,161.65,48.72Z"/><path class="cls-3" d="M177.16,43.32a1.13,1.13,0,0,0-.4-2.22,15.86,15.86,0,0,1-6.55-1,6.52,6.52,0,0,1-3.7-3,1.13,1.13,0,1,0-1.91,1.2,8.77,8.77,0,0,0,4.86,3.93,21.26,21.26,0,0,0,6.29,1.19A7.91,7.91,0,0,0,177.16,43.32Z"/><path class="cls-3" d="M152.87,37.7A6.56,6.56,0,0,1,149,40.41a16,16,0,0,1-6.61.48,1.13,1.13,0,1,0-.57,2.18,9.7,9.7,0,0,0,2.36.26,22.87,22.87,0,0,0,5.39-.74A8.79,8.79,0,0,0,154.68,39a1.13,1.13,0,0,0-.24-1.58A1.12,1.12,0,0,0,152.87,37.7Z"/><path class="cls-3" d="M150.43,71a2.23,2.23,0,0,0,.67,1.67c1.06,1,3,.94,5.73.83,1.78-.07,3.94-.07,5.72,0,.8,0,1.53.06,2.2.06,1.59,0,2.78-.17,3.53-.89a2.22,2.22,0,0,0,.66-1.67c0-3.15-4.41-6-9.25-6S150.43,67.89,150.43,71Zm16.76,0a.51.51,0,0,1-.13.41c-.52.49-2.51.41-4.44.33-.91,0-1.9-.07-2.93-.07s-2,0-2.93.07c-1.93.08-3.92.16-4.44-.33a.51.51,0,0,1-.13-.41c0-1.71,3.15-4.25,7.5-4.25S167.19,69.33,167.19,71Z"/><path class="cls-1" d="M209.2,43.18a1.11,1.11,0,0,1-1.06-.77c-2.09-6.78,2.7-13.62,8.74-16.79A15.33,15.33,0,0,1,221,18.17a20.15,20.15,0,0,1,16.1-5.77,18.79,18.79,0,0,1,2.39-4.11C246-.34,259.73-2.65,268.77,3.34a1.11,1.11,0,0,1-1.22,1.85c-8.13-5.39-20.43-3.31-26.34,4.44a18,18,0,0,0-1.87,3.09,18.38,18.38,0,0,1,5.73,2.19,11.75,11.75,0,0,1,5.14,5.5,7,7,0,0,1-1.29,7.67,6.86,6.86,0,0,1-7.5,1.07,9.82,9.82,0,0,1-4.89-5.56,14.53,14.53,0,0,1-.22-9,17.83,17.83,0,0,0-13.75,5.16,13.88,13.88,0,0,0-3.07,4.8,12.65,12.65,0,0,1,7.07-.56,7.64,7.64,0,0,1,5.88,5.81,6.35,6.35,0,0,1-1.84,5.47,7.54,7.54,0,0,1-6.24,2.35c-4-.51-7.3-4.22-7.68-8.64,0-.2,0-.41,0-.61-4.61,3-7.94,8.39-6.38,13.43a1.11,1.11,0,0,1-.73,1.39A1.24,1.24,0,0,1,209.2,43.18Zm9.69-16.08a9,9,0,0,0,0,1.64c.29,3.35,2.82,6.27,5.76,6.64A5.27,5.27,0,0,0,229,33.69a4.18,4.18,0,0,0,1.26-3.57,5.46,5.46,0,0,0-4.22-4,11.06,11.06,0,0,0-6.63.8C219.23,27,219.06,27,218.89,27.1Zm19.64-12.3a12.45,12.45,0,0,0,.07,8,7.58,7.58,0,0,0,3.73,4.33,4.67,4.67,0,0,0,5-.65,4.89,4.89,0,0,0,.78-5.25,9.94,9.94,0,0,0-4.22-4.43A16.29,16.29,0,0,0,238.53,14.8Z"/></g></g></svg>