<svg width="36" height="36" viewBox="0 0 36 36" fill="none" xmlns="http://www.w3.org/2000/svg">
<path fill-rule="evenodd" clip-rule="evenodd" d="M0 18C0 8.05875 8.05875 0 18 0C27.9412 0 36 8.05875 36 18C36 27.9412 27.9412 36 18 36C8.05875 36 0 27.9412 0 18ZM23.9243 10.3262C24.7111 11.1854 25.7587 11.7811 26.9168 12.0278H26.9633C27.3454 12.1042 27.7348 12.1419 28.125 12.1403V15.9664C26.1385 15.9728 24.2001 15.3744 22.5836 14.2559V22.1332C22.5799 23.5478 22.1422 24.9294 21.3261 26.1025C20.51 27.2756 19.3523 28.1872 18.0001 28.7215C16.648 29.2558 15.1623 29.3887 13.732 29.1032C12.3017 28.8178 10.9912 28.1269 9.96719 27.1184C8.968 26.1271 8.2889 24.8751 8.01306 23.5157C7.73722 22.1563 7.87661 20.7485 8.41416 19.4646C8.95171 18.1808 9.86408 17.0767 11.0396 16.2874C12.215 15.4982 13.6026 15.0581 15.0323 15.0211C15.4205 15.0124 15.8087 15.0312 16.1941 15.0774V19.016C15.863 18.9172 15.5182 18.8678 15.1717 18.8698C14.5452 18.8676 13.9306 19.0353 13.3974 19.3539C12.8642 19.6725 12.4337 20.1293 12.1545 20.6725C11.8753 21.2158 11.7585 21.8239 11.8175 22.428C11.8765 23.0322 12.1088 23.6083 12.4881 24.0913C12.9116 24.6369 13.5015 25.0396 14.1744 25.2423C14.8472 25.4451 15.5689 25.4377 16.2371 25.2211C16.9053 25.0045 17.4863 24.5897 17.8977 24.0355C18.309 23.4813 18.5299 22.8158 18.5291 22.1332V6.75H22.5371V7.24514C22.6518 8.38833 23.1374 9.46693 23.9243 10.3262Z" fill="white"/>
</svg>
