<svg width="18" height="10" viewBox="0 0 18 10" fill="none" xmlns="http://www.w3.org/2000/svg">
<path fill-rule="evenodd" clip-rule="evenodd" d="M16.7569 0.842698C16.3663 0.452174 15.7332 0.452174 15.3426 0.842698L8.94974 7.23559L2.57157 0.857415C2.18105 0.466891 1.54788 0.466891 1.15736 0.857415C0.766832 1.24794 0.766832 1.8811 1.15736 2.27163L8.22842 9.3427C8.51293 9.6272 8.92622 9.70444 9.28065 9.57441C9.42884 9.52761 9.56829 9.44547 9.68578 9.32798L16.7569 2.25691C17.1474 1.86639 17.1474 1.23322 16.7569 0.842698Z" fill="white"/>
<path fill-rule="evenodd" clip-rule="evenodd" d="M16.7569 0.842698C16.3663 0.452174 15.7332 0.452174 15.3426 0.842698L8.94974 7.23559L2.57157 0.857415C2.18105 0.466891 1.54788 0.466891 1.15736 0.857415C0.766832 1.24794 0.766832 1.8811 1.15736 2.27163L8.22842 9.3427C8.51293 9.6272 8.92622 9.70444 9.28065 9.57441C9.42884 9.52761 9.56829 9.44547 9.68578 9.32798L16.7569 2.25691C17.1474 1.86639 17.1474 1.23322 16.7569 0.842698Z" fill="black" fill-opacity="0.38"/>
</svg>
