<svg xmlns="http://www.w3.org/2000/svg" viewBox="0 0 157.93 135.09"><defs><style>.cls-1{fill:#1e2050;}.cls-2{fill:#ed9322;}</style></defs><g id="Layer_2" data-name="Layer 2"><g id="Layer_1-2" data-name="Layer 1"><path class="cls-1" d="M.56,110.82a4.44,4.44,0,0,0,3.9,2.43h.19A4.66,4.66,0,0,1,.56,110.82Z"/><path class="cls-1" d="M12.93,61.83A18.14,18.14,0,0,1,0,56.43v52.11a4.83,4.83,0,0,0,.09.94,5.36,5.36,0,0,0,.26.89c0,.09.07.16.12.25l.09.2a4.66,4.66,0,0,0,4.09,2.43H128.59a4.44,4.44,0,0,0,3.91-2.43c0-.07.07-.14.09-.2a1.42,1.42,0,0,0,.12-.25,5.36,5.36,0,0,0,.26-.89,4.83,4.83,0,0,0,.09-.94V56.38a18.1,18.1,0,0,1-13,5.45ZM129,17.5H93.75V3.5A3.56,3.56,0,0,0,90.25,0H43.05a3.54,3.54,0,0,0-3.49,3.5v14H4.08A4.11,4.11,0,0,0,0,21.59V45.13a13.06,13.06,0,0,0,12.93,11.5H120.09a13.05,13.05,0,0,0,13-12V21.59A4.1,4.1,0,0,0,129,17.5Zm-42.23,0H46.55V7h40.2Z"/><path class="cls-2" d="M109.27,70.66a3.84,3.84,0,0,0-3.84,3.84v56.75a3.85,3.85,0,0,0,3.84,3.84h34.27v-7.54a6,6,0,0,1,6-6h8.36v-47a3.84,3.84,0,0,0-3.84-3.84Zm38.65,35.15H115.43v-2.64h32.49Zm0-9.24H115.43V93.92h32.49Zm0-9.25H115.43V84.68h32.49Z"/><path class="cls-2" d="M145.73,127.55v6.09l10.54-9.93h-6.7A3.84,3.84,0,0,0,145.73,127.55Z"/></g></g></svg>