<svg width="36" height="36" viewBox="0 0 36 36" fill="none" xmlns="http://www.w3.org/2000/svg">
<path fill-rule="evenodd" clip-rule="evenodd" d="M0 18C0 8.05875 8.05875 0 18 0C27.9412 0 36 8.05875 36 18C36 27.9412 27.9412 36 18 36C8.05875 36 0 27.9412 0 18ZM29.0669 10.3963C29.4437 10.7857 29.7166 11.2792 29.8568 11.8242V11.8231C30.2263 13.8654 30.3991 15.9443 30.3723 18.0259C30.3846 20.0986 30.2115 22.1677 29.8557 24.2039C29.7162 24.7489 29.4435 25.2424 29.0669 25.6318C28.6795 26.0331 28.2047 26.3202 27.6873 26.466C24.4687 26.8581 21.2312 27.0346 17.9928 26.9944C17.9928 26.9944 10.2729 26.9944 8.31065 26.439C7.78685 26.2872 7.31047 26.0005 6.92793 25.6037C6.54539 25.2068 6.27008 24.7155 6.12882 24.1769C5.78133 22.1374 5.61326 20.0698 5.62564 18C5.61356 15.9283 5.78205 13.86 6.12882 11.8231C6.27317 11.2823 6.54951 10.7887 6.93102 10.3885C7.3193 9.98404 7.79323 9.69051 8.31065 9.534C11.5251 9.14192 14.7585 8.96545 17.9928 9.00558C17.9928 9.00558 25.7509 9.00558 27.6873 9.56211C28.2047 9.70785 28.6795 9.99496 29.0669 10.3963ZM15.5264 14.1515V21.8496L21.9811 18.0011L15.5264 14.1515Z" fill="white"/>
</svg>
